<svg width="21" height="13" viewBox="0 0 21 13" version="1.1" xmlns="http://www.w3.org/2000/svg" xmlns:xlink="http://www.w3.org/1999/xlink"><title>bullet</title><desc>Created with Sketch.</desc><g id="Design" stroke="none" stroke-width="1" fill="none" fill-rule="evenodd"><g id="1.2.2-STEM+-Studio" transform="translate(-375.000000, -1181.000000)" fill="#F9811B"><g id="main" transform="translate(135.000000, 817.000000)"><g id="list" transform="translate(240.000000, 353.000000)"><path d="M14.2347798,23.0302785 C13.9828368,22.7783342 13.9828368,22.5263937 14.2347798,22.2744495 L18.4548251,17.6135039 L0.50388601,17.6135039 C0.167960324,17.6135039 0,17.4455446 0,17.1096179 C0,16.7736912 0.167960324,16.6057319 0.50388601,16.6057319 L18.4548251,16.6057319 L14.2347798,11.9447863 C13.9828368,11.6928433 13.9828368,11.4409003 14.2347798,11.1889573 C14.4867228,10.9370142 14.7386658,10.9370142 14.9906088,11.1889573 C18.3078758,14.842151 19.9874771,16.6897115 20.0294689,16.7317034 C20.1134486,16.815683 20.1554404,16.9416545 20.1554404,17.1096179 C20.1554404,17.2775812 20.1134486,17.4035527 20.0294689,17.4875324 L14.9906088,23.0302785 C14.9066292,23.1142599 14.7806576,23.15625 14.6126943,23.15625 C14.444731,23.15625 14.3187595,23.1142599 14.2347798,23.0302785 Z" id="bullet"/></g></g></g></g></svg>