<?xml version="1.0" encoding="utf-8"?>
<!-- Generator: Adobe Illustrator 20.0.0, SVG Export Plug-In . SVG Version: 6.00 Build 0)  -->
<svg version="1.1" id="Layer_1" xmlns="http://www.w3.org/2000/svg" xmlns:xlink="http://www.w3.org/1999/xlink" x="0px" y="0px"
	 viewBox="0 0 600 600" style="enable-background:new 0 0 600 600;" xml:space="preserve">
<style type="text/css">
	.st0{fill:#FFFFFF;}
	.st1{fill:#282828;}
	.st2{fill:#E9B300;}
	.st3{fill:#00A2CC;}
	.st4{fill:#C00000;}
	.st5{fill:#6D9D3A;}
	.st6{fill:#F9811B;}
</style>
<rect x="117.7" y="152.7" class="st0" width="341.5" height="71"/>
<path class="st1" d="M333.8,176l-1.2,1.3c-2.2-1.9-4.1-2.8-7-2.8c-3.8,0-6.4,2.1-6.4,5.2c0,3.2,1.8,4.7,7,6.2
	c5.5,1.7,8.5,3.6,8.5,8.7c0,5-3.8,8.5-9.5,8.5c-4,0-6.8-1.5-9.3-3.7l1.2-1.3c2.1,1.9,4.5,3.2,7.9,3.2c4.4,0,7.5-2.5,7.5-6.6
	c0-3.8-1.9-5.4-7.3-7c-5.9-1.8-8.3-3.8-8.3-7.9c0-4,3.3-7,8.4-7C329.3,172.9,331.6,174,333.8,176z"/>
<path class="st1" d="M351.8,201.9c-1.3,0.9-2.8,1.3-4.7,1.3c-3.2,0-5.2-1.9-5.2-5.8V182H338v-1.7h3.8v-5.5l2-0.2v5.7h5.9l-0.2,1.7
	h-5.7v15.4c0,2.8,1.1,4.1,3.5,4.1c1.3,0,2.5-0.3,3.6-1L351.8,201.9z"/>
<path class="st1" d="M371.8,202.8h-1.7l-0.1-4.1c-1.6,2.7-3.9,4.7-7.5,4.7c-4,0-6.4-2.5-6.4-6.9v-16.1h2v16c0,3.8,1.7,5.4,4.8,5.4
	c3.1,0,5.4-2,6.9-4.8v-16.4h2L371.8,202.8L371.8,202.8z"/>
<path class="st1" d="M396.8,171.1v31.7h-1.7l-0.2-3.6c-1.2,2.2-3.5,4-6.9,4c-5.1,0-8.4-4.5-8.4-11.6c0-6.9,3.2-11.7,8.8-11.7
	c3.2,0,5.1,1.6,6.5,3.1v-12.2L396.8,171.1z M394.8,197v-11.9c-1.3-1.9-3.2-3.6-6.1-3.6c-4.1,0-7,3.6-7,10c0,6.4,2.6,9.9,6.6,9.9
	C391.5,201.6,393.3,199.9,394.8,197z"/>
<path class="st1" d="M408.9,172.3c0,0.8-0.6,1.6-1.6,1.6c-1,0-1.6-0.7-1.6-1.6c0-0.8,0.6-1.6,1.6-1.6
	C408.2,170.7,408.9,171.5,408.9,172.3z M408.3,202.8h-2v-22.5h2V202.8z"/>
<path class="st1" d="M434.7,191.4c0,7.4-3.6,11.8-9.4,11.8c-5.8,0-9.3-4.5-9.3-11.7c0-7.4,3.6-11.7,9.4-11.7
	C431.1,179.8,434.7,184.1,434.7,191.4z M418,191.6c0,6.5,2.7,9.9,7.3,9.9c4.5,0,7.3-3.5,7.3-10c0-6.5-2.7-9.8-7.3-9.8
	C420.8,181.6,418,185,418,191.6z"/>
<path class="st2" d="M146.7,197.5c1.8,1.1,4.6,2,7.5,2c3.6,0,5.6-1.7,5.6-4.2c0-2.3-1.6-3.7-5.5-5.1c-5.1-1.8-8.3-4.5-8.3-9
	c0-5,4.2-8.9,10.9-8.9c3.3,0,5.8,0.7,7.4,1.6l-1.4,4.5c-1.1-0.6-3.2-1.5-6.1-1.5c-3.6,0-5.1,1.9-5.1,3.7c0,2.4,1.8,3.5,5.9,5.1
	c5.4,2,8,4.7,8,9.1c0,4.9-3.8,9.2-11.7,9.2c-3.2,0-6.6-0.9-8.3-1.9L146.7,197.5z"/>
<path class="st3" d="M182.1,177.5h-8.8v-4.7h23.3v4.7h-8.9v26.1h-5.6V177.5z"/>
<path class="st4" d="M223.8,189.9h-11.6v9.1h13v4.6h-18.6v-30.8h17.9v4.6h-12.3v8h11.6L223.8,189.9L223.8,189.9z"/>
<path class="st5" d="M261.7,191c-0.2-4-0.4-8.8-0.4-12.9h-0.1c-1,3.8-2.3,7.9-3.7,11.8l-4.5,13.4h-4.3l-4.1-13.2
	c-1.2-3.9-2.3-8.1-3.1-12h-0.1c-0.1,4-0.3,8.9-0.5,13.1l-0.7,12.4h-5.3l2.1-30.8h7.4l4,12.4c1.1,3.6,2.1,7.3,2.8,10.7h0.1
	c0.8-3.3,1.9-7.1,3.1-10.7l4.3-12.3h7.3l1.8,30.8h-5.5L261.7,191z"/>
<g>
	<polygon class="st6" points="304.7,185.5 304.7,190.7 292.4,190.7 292.4,203.6 287,203.6 287,190.7 274.7,190.7 274.7,185.5 
		287,185.5 287,172.7 292.4,172.7 292.4,185.5 	"/>
</g>
</svg>
